<?xml version="1.0" encoding="UTF-8" standalone="no"?>

<svg height="36px" xmlns="http://www.w3.org/2000/svg" viewBox="0 0 12.577905 12.563475">
   <g transform="translate(-156.99676,-203.78373)">
      <path
         id="darkmodePath"
         transform="matrix(0.26458333,0,0,0.26458333,156.99676,203.77659)"
         d="M 24.997,47.511 C 11.214,47.511 0,36.298 0,22.515 0,12.969 5.314,4.392 13.869,0.132 c 0.385,-0.191 0.848,-0.117 1.151,0.186 0.303,0.303 0.381,0.766 0.192,1.15 -1.561,3.172 -2.352,6.582 -2.352,10.133 0,12.681 10.316,22.997 22.997,22.997 3.59,0 7.033,-0.809 10.236,-2.403 0.386,-0.191 0.848,-0.117 1.151,0.186 0.304,0.303 0.381,0.766 0.192,1.15 -4.24,8.622 -12.839,13.98 -22.439,13.98 z M 12.248,3.372 C 5.862,7.608 2,14.709 2,22.515 c 0,12.68 10.316,22.996 22.997,22.996 7.854,0 14.981,-3.898 19.207,-10.343 -2.668,0.95 -5.464,1.43 -8.346,1.43 -13.783,0 -24.997,-11.214 -24.997,-24.997 0,-2.84 0.466,-5.596 1.387,-8.229 z"
         style="fill:#010002"
      />
      <path
         id="darkmodeFill"
         style="stroke-width:0.08928572"
         d="m 616.7882,815.66848 c -0.17187,-0.0201 -0.69419,-0.0795 -1.16071,-0.13197 -7.58498,-0.85333 -14.49219,-5.75749 -17.89706,-12.70702 -1.09186,-2.22853 -1.78235,-4.43144 -2.15835,-6.88587 -0.23147,-1.51094 -0.23188,-5.00218 -7.7e-4,-6.51786 0.20505,-1.34471 0.7445,-3.48887 1.16957,-4.64867 0.80539,-2.19751 2.27802,-4.78861 3.7518,-6.60133 0.76269,-0.93809 2.58632,-2.74173 3.48302,-3.44484 0.90713,-0.71128 1.56593,-1.1797 1.60469,-1.14095 0.0186,0.0186 -0.10055,0.47687 -0.26473,1.01842 -1.35341,4.4641 -1.38198,9.58648 -0.0786,14.08951 1.13601,3.92475 3.17995,7.43521 6.05456,10.3987 3.35126,3.45486 7.28045,5.74149 11.84702,6.89446 4.42799,1.11798 9.27707,0.97134 13.65952,-0.41307 0.39657,-0.12528 0.73646,-0.21234 0.75532,-0.19348 0.0189,0.0189 -0.34394,0.53803 -0.80622,1.15372 -3.65401,4.86656 -8.94812,8.01658 -14.99765,8.92369 -1.10927,0.16633 -4.20384,0.29517 -4.96142,0.20656 z"
         transform="scale(0.26458333)"
      />
   </g>
</svg>
