<?xml version="1.0" encoding="UTF-8" standalone="no"?>
<!-- Created with Inkscape (http://www.inkscape.org/) -->

<svg
   xmlns:dc="http://purl.org/dc/elements/1.1/"
   xmlns:cc="http://creativecommons.org/ns#"
   xmlns:rdf="http://www.w3.org/1999/02/22-rdf-syntax-ns#"
   xmlns:svg="http://www.w3.org/2000/svg"
   xmlns="http://www.w3.org/2000/svg"
   xmlns:sodipodi="http://sodipodi.sourceforge.net/DTD/sodipodi-0.dtd"
   xmlns:inkscape="http://www.inkscape.org/namespaces/inkscape"
   width="12.577905mm"
   height="12.563475mm"
   viewBox="0 0 12.577905 12.563475"
   version="1.1"
   id="svg8"
   inkscape:version="0.92.4 (5da689c313, 2019-01-14)"
   sodipodi:docname="darkmode.svg">
  <defs
     id="defs2" />
  <sodipodi:namedview
     id="base"
     pagecolor="#ffffff"
     bordercolor="#666666"
     borderopacity="1.0"
     inkscape:pageopacity="0.0"
     inkscape:pageshadow="2"
     inkscape:zoom="22.4"
     inkscape:cx="14.644974"
     inkscape:cy="34.188263"
     inkscape:document-units="mm"
     inkscape:current-layer="layer1"
     showgrid="false"
     inkscape:window-width="1920"
     inkscape:window-height="1001"
     inkscape:window-x="0"
     inkscape:window-y="0"
     inkscape:window-maximized="1"
     fit-margin-top="0"
     fit-margin-left="0"
     fit-margin-right="0"
     fit-margin-bottom="0" />
  <metadata
     id="metadata5">
    <rdf:RDF>
      <cc:Work
         rdf:about="">
        <dc:format>image/svg+xml</dc:format>
        <dc:type
           rdf:resource="http://purl.org/dc/dcmitype/StillImage" />
        <dc:title></dc:title>
      </cc:Work>
    </rdf:RDF>
  </metadata>
  <g
     inkscape:label="Layer 1"
     inkscape:groupmode="layer"
     id="layer1"
     transform="translate(-156.99676,-203.78373)">
    <g
       id="g71"
       transform="matrix(0.26458333,0,0,0.26458333,156.99676,203.77659)">
      <g
         id="g14">
        <g
           id="g12">
          <path
             id="darkmodePath"
             d="M 24.997,47.511 C 11.214,47.511 0,36.298 0,22.515 0,12.969 5.314,4.392 13.869,0.132 c 0.385,-0.191 0.848,-0.117 1.151,0.186 0.303,0.303 0.381,0.766 0.192,1.15 -1.561,3.172 -2.352,6.582 -2.352,10.133 0,12.681 10.316,22.997 22.997,22.997 3.59,0 7.033,-0.809 10.236,-2.403 0.386,-0.191 0.848,-0.117 1.151,0.186 0.304,0.303 0.381,0.766 0.192,1.15 -4.24,8.622 -12.839,13.98 -22.439,13.98 z M 12.248,3.372 C 5.862,7.608 2,14.709 2,22.515 c 0,12.68 10.316,22.996 22.997,22.996 7.854,0 14.981,-3.898 19.207,-10.343 -2.668,0.95 -5.464,1.43 -8.346,1.43 -13.783,0 -24.997,-11.214 -24.997,-24.997 0,-2.84 0.466,-5.596 1.387,-8.229 z"
             style="fill:#010002"
             inkscape:connector-curvature="0" />
        </g>
      </g>
      <g
         id="g16" />
      <g
         id="g18" />
      <g
         id="g20" />
      <g
         id="g22" />
      <g
         id="g24" />
      <g
         id="g26" />
      <g
         id="g28" />
      <g
         id="g30" />
      <g
         id="g32" />
      <g
         id="g34" />
      <g
         id="g36" />
      <g
         id="g38" />
      <g
         id="g40" />
      <g
         id="g42" />
      <g
         id="g44" />
    </g>
    <path
       style="stroke-width:0.08928572"
       d="m 616.7882,815.66848 c -0.17187,-0.0201 -0.69419,-0.0795 -1.16071,-0.13197 -7.58498,-0.85333 -14.49219,-5.75749 -17.89706,-12.70702 -1.09186,-2.22853 -1.78235,-4.43144 -2.15835,-6.88587 -0.23147,-1.51094 -0.23188,-5.00218 -7.7e-4,-6.51786 0.20505,-1.34471 0.7445,-3.48887 1.16957,-4.64867 0.80539,-2.19751 2.27802,-4.78861 3.7518,-6.60133 0.76269,-0.93809 2.58632,-2.74173 3.48302,-3.44484 0.90713,-0.71128 1.56593,-1.1797 1.60469,-1.14095 0.0186,0.0186 -0.10055,0.47687 -0.26473,1.01842 -1.35341,4.4641 -1.38198,9.58648 -0.0786,14.08951 1.13601,3.92475 3.17995,7.43521 6.05456,10.3987 3.35126,3.45486 7.28045,5.74149 11.84702,6.89446 4.42799,1.11798 9.27707,0.97134 13.65952,-0.41307 0.39657,-0.12528 0.73646,-0.21234 0.75532,-0.19348 0.0189,0.0189 -0.34394,0.53803 -0.80622,1.15372 -3.65401,4.86656 -8.94812,8.01658 -14.99765,8.92369 -1.10927,0.16633 -4.20384,0.29517 -4.96142,0.20656 z"
       id="darkmodeFill"
       inkscape:connector-curvature="0"
       transform="scale(0.26458333)" />
  </g>
</svg>
